<?xml version="1.0" encoding="utf-8"?>
<!-- Generator: Adobe Illustrator 22.1.0, SVG Export Plug-In . SVG Version: 6.00 Build 0)  -->
<!DOCTYPE svg PUBLIC "-//W3C//DTD SVG 1.0//EN" "http://www.w3.org/TR/2001/REC-SVG-20010904/DTD/svg10.dtd">
<svg version="1.0" id="Layer_1" xmlns="http://www.w3.org/2000/svg" xmlns:xlink="http://www.w3.org/1999/xlink" x="0px" y="0px"
	 viewBox="0 0 23.8 23.8" style="enable-background:new 0 0 23.8 23.8;" xml:space="preserve">
<title>Cart</title>
<g>
	<circle cx="9.3" cy="20.6" r="1.9"/>
	<circle cx="17.7" cy="20.6" r="1.9"/>
	<path d="M20,6.1H7.4H7H6L5.5,2.5c0-0.4-0.3-0.8-0.8-0.8v0l-3.1,0c0,0,0,0,0,0C1.2,1.7,0.8,2,0.8,2.5c0,0.4,0.3,0.8,0.8,0.8H4
		l1.9,12.3c0,1.3,1,2.3,2.3,2.3h10.7c1.3,0,2.3-1,2.3-2.3l1.2-7.1C22.3,7.2,21.3,6.1,20,6.1z M19.6,15.5c0,0.4-0.3,0.8-0.8,0.8H8.2
		c-0.4,0-0.8-0.3-0.8-0.8L6.3,8.4C6.3,8,6.6,7.7,7,7.7h0.4H20c0.4,0,0.8,0.3,0.8,0.8L19.6,15.5z"/>
</g>
</svg>
