<svg version="1.0" id="Layer_1" xmlns="http://www.w3.org/2000/svg" xmlns:xlink="http://www.w3.org/1999/xlink" x="0px" y="0px"
	 viewBox="0 0 400 75" style="enable-background:new 0 0 400 75;" xml:space="preserve">
<g>
	<g>
		<path id="XMLID_48_" style="fill:#243D7F;" d="M80.7,61.6H24.5c-3.5,0-6.4-2.9-6.4-6.4V19.4c0-3.5,2.9-6.4,6.4-6.4h56.2
			c3.5,0,6.4,2.9,6.4,6.4v35.8C87.1,58.7,84.2,61.6,80.7,61.6z"/>
		<g id="XMLID_2_">
			<path id="XMLID_42_" style="fill:#FFFFFF;" d="M34.7,34.3c-0.2,1.3-1.2,1.3-2.2,1.3h-0.6l0.4-2.5c0-0.2,0.2-0.3,0.3-0.3h0.3
				c0.7,0,1.3,0,1.6,0.4C34.7,33.5,34.7,33.9,34.7,34.3z M34.2,30.8h-3.8c-0.3,0-0.5,0.2-0.5,0.4l-1.5,9.6c0,0.2,0.1,0.4,0.3,0.4
				h1.8c0.3,0,0.5-0.2,0.5-0.4l0.4-2.6c0-0.3,0.3-0.4,0.5-0.4h1.2c2.5,0,3.9-1.2,4.3-3.6c0.2-1,0-1.9-0.5-2.4
				C36.4,31.2,35.5,30.8,34.2,30.8z"/>
			<path id="XMLID_25_" style="fill:#FFFFFF;" d="M42.9,37.8c-0.2,1-1,1.7-2,1.7c-0.5,0-0.9-0.2-1.2-0.5c-0.3-0.3-0.4-0.8-0.3-1.3
				c0.2-1,1-1.7,2-1.7c0.5,0,0.9,0.2,1.2,0.5C42.9,36.9,43,37.3,42.9,37.8z M45.5,34.3h-1.8c-0.2,0-0.3,0.1-0.3,0.3l-0.1,0.5
				l-0.1-0.2c-0.4-0.6-1.3-0.8-2.1-0.8c-2,0-3.7,1.5-4,3.6c-0.2,1.1,0.1,2.1,0.7,2.8c0.5,0.6,1.3,0.9,2.3,0.9c1.6,0,2.5-1,2.5-1
				l-0.1,0.5c0,0.2,0.1,0.4,0.3,0.4h1.6c0.3,0,0.5-0.2,0.5-0.4l1-6.2C45.8,34.5,45.6,34.3,45.5,34.3z"/>
			<path id="XMLID_24_" style="fill:#FFFFFF;" d="M55,34.3h-1.8c-0.2,0-0.3,0.1-0.4,0.2l-2.5,3.7l-1.1-3.5c-0.1-0.2-0.3-0.4-0.5-0.4
				H47c-0.2,0-0.4,0.2-0.3,0.4l2,5.8l-1.9,2.6c-0.1,0.2,0,0.5,0.3,0.5h1.8c0.2,0,0.3-0.1,0.4-0.2l6-8.7C55.4,34.6,55.3,34.3,55,34.3
				z"/>
			<path id="XMLID_13_" style="fill:#FFFFFF;" d="M61.5,34.3c-0.2,1.3-1.2,1.3-2.2,1.3h-0.6l0.4-2.5c0-0.2,0.2-0.3,0.3-0.3h0.3
				c0.7,0,1.3,0,1.6,0.4C61.5,33.5,61.5,33.9,61.5,34.3z M61,30.8h-3.8c-0.3,0-0.5,0.2-0.5,0.4l-1.5,9.6c0,0.2,0.1,0.4,0.3,0.4h1.9
				c0.2,0,0.3-0.1,0.4-0.3l0.4-2.7c0-0.3,0.3-0.4,0.5-0.4H60c2.5,0,3.9-1.2,4.3-3.6c0.2-1,0-1.9-0.5-2.4
				C63.2,31.2,62.3,30.8,61,30.8z"/>
			<path id="XMLID_5_" style="fill:#FFFFFF;" d="M69.8,37.8c-0.2,1-1,1.7-2,1.7c-0.5,0-0.9-0.2-1.2-0.5c-0.3-0.3-0.4-0.8-0.3-1.3
				c0.2-1,1-1.7,2-1.7c0.5,0,0.9,0.2,1.2,0.5C69.7,36.9,69.8,37.3,69.8,37.8z M72.3,34.3h-1.8c-0.2,0-0.3,0.1-0.3,0.3l-0.1,0.5
				l-0.1-0.2c-0.4-0.6-1.3-0.8-2.1-0.8c-2,0-3.7,1.5-4,3.6c-0.2,1.1,0.1,2.1,0.7,2.8c0.5,0.6,1.3,0.9,2.3,0.9c1.6,0,2.5-1,2.5-1
				l-0.1,0.5c0,0.2,0.1,0.4,0.3,0.4h1.6c0.3,0,0.5-0.2,0.5-0.4l1-6.2C72.6,34.5,72.5,34.3,72.3,34.3z"/>
			<path id="XMLID_4_" style="fill:#FFFFFF;" d="M74.4,31.1l-1.5,9.8c0,0.2,0.1,0.4,0.3,0.4h1.6c0.3,0,0.5-0.2,0.5-0.4l1.5-9.6
				c0-0.2-0.1-0.4-0.3-0.4h-1.7C74.5,30.8,74.4,30.9,74.4,31.1z"/>
		</g>
	</g>
	<g>
		<path id="XMLID_47_" style="fill:#0968B0;" d="M154.4,61.6H98.2c-3.5,0-6.4-2.9-6.4-6.4V19.4c0-3.5,2.9-6.4,6.4-6.4h56.2
			c3.5,0,6.4,2.9,6.4,6.4v35.8C160.8,58.7,158,61.6,154.4,61.6z"/>
		<g id="XMLID_7_">
			<g id="XMLID_9_">
				<polygon id="XMLID_19_" style="fill:#FFFFFF;" points="123.4,44.9 119.8,44.9 122.1,31.1 125.7,31.1 				"/>
				<path id="XMLID_18_" style="fill:#FFFFFF;" d="M116.8,31.1l-3.4,9.5l-0.4-2l0,0l-1.2-6.2c0,0-0.1-1.2-1.7-1.2h-5.7l-0.1,0.2
					c0,0,1.7,0.4,3.8,1.6l3.1,12h3.7l5.7-13.8H116.8z"/>
				<path id="XMLID_11_" style="fill:#FFFFFF;" d="M145.1,44.9h3.3l-2.9-13.8h-2.9c-1.3,0-1.7,1-1.7,1l-5.4,12.8h3.7l0.7-2.1h4.6
					L145.1,44.9z M141.1,40l1.9-5.2L144,40H141.1z"/>
				<path id="XMLID_10_" style="fill:#FFFFFF;" d="M135.8,34.4l0.5-3c0,0-1.6-0.6-3.2-0.6c-1.8,0-6,0.8-6,4.6c0,3.6,5,3.6,5,5.5
					c0,1.9-4.5,1.5-5.9,0.4l-0.5,3.1c0,0,1.6,0.8,4.1,0.8c2.5,0,6.2-1.3,6.2-4.7c0-3.6-5-3.9-5-5.5
					C130.8,33.3,134.3,33.5,135.8,34.4z"/>
			</g>
			<path id="XMLID_8_" style="fill:#F9A533;" d="M113,38.5l-1.2-6.2c0,0-0.1-1.2-1.7-1.2h-5.7l-0.1,0.2c0,0,2.7,0.6,5.3,2.7
				C112.1,36,113,38.5,113,38.5z"/>
		</g>
	</g>
	<g>
		<path id="XMLID_46_" style="fill:#384A5D;" d="M228.2,61.6H172c-3.5,0-6.4-2.9-6.4-6.4V19.4c0-3.5,2.9-6.4,6.4-6.4h56.2
			c3.5,0,6.4,2.9,6.4,6.4v35.8C234.6,58.7,231.7,61.6,228.2,61.6z"/>
		<g id="XMLID_3_">
			<rect id="XMLID_41_" x="194.3" y="26.8" style="fill:#ED6724;" width="11.6" height="20.8"/>
			<path id="XMLID_40_" style="fill:#DF1F28;" d="M195,37.3c0-4.2,2-8,5.1-10.4c-2.3-1.8-5.1-2.8-8.2-2.8c-7.3,0-13.2,5.9-13.2,13.2
				c0,7.3,5.9,13.2,13.2,13.2c3.1,0,5.9-1.1,8.2-2.8C197,45.2,195,41.5,195,37.3"/>
			<path id="XMLID_20_" style="fill:#F59C20;" d="M221.5,37.3c0,7.3-5.9,13.2-13.2,13.2c-3.1,0-5.9-1.1-8.2-2.8
				c3.1-2.4,5.1-6.2,5.1-10.4s-2-8-5.1-10.4c2.3-1.8,5.1-2.8,8.2-2.8C215.6,24,221.5,29.9,221.5,37.3 M220.3,45.5V45h0.2V45H220V45
				h0.2L220.3,45.5L220.3,45.5z M221.1,45.5V45H221l-0.2,0.4l-0.2-0.4h-0.1v0.5h0.1v-0.4l0.1,0.3h0.1l0.1-0.3L221.1,45.5L221.1,45.5
				z"/>
		</g>
	</g>
	<g>
		<path id="XMLID_45_" style="fill:#2E70B5;" d="M301.9,61.6h-56.2c-3.5,0-6.4-2.9-6.4-6.4V19.4c0-3.5,2.9-6.4,6.4-6.4h56.2
			c3.5,0,6.4,2.9,6.4,6.4v35.8C308.3,58.7,305.5,61.6,301.9,61.6z"/>
		<g id="XMLID_63_">
			<g id="XMLID_64_" transform="translate(0 16.675)">
				<defs>
					<filter id="Adobe_OpacityMaskFilter" filterUnits="userSpaceOnUse" x="239.3" y="7.8" width="68.9" height="28.2">
						<feColorMatrix  type="matrix" values="1 0 0 0 0  0 1 0 0 0  0 0 1 0 0  0 0 0 1 0"/>
					</filter>
				</defs>
				<mask maskUnits="userSpaceOnUse" x="239.3" y="7.8" width="68.9" height="28.2" id="bluebox-55x54-b_2_">
					<g id="XMLID_100_" style="filter:url(#Adobe_OpacityMaskFilter);">
						<polygon id="bluebox-55x54-a_2_" style="fill:#FFFFFF;" points="239.3,7.8 239.3,36 308.3,36 308.3,7.8 						"/>
					</g>
				</mask>
				<path id="XMLID_90_" style="mask:url(#bluebox-55x54-b_2_);fill:#F5F6F6;" d="M299.8,19.9h5.2v-12h-5.5v1.9l-1.2-1.9h-4.8v2.4
					l-1.1-2.4h-8c-0.4,0-0.8,0-1.1,0.1c-0.3,0-0.6,0.1-0.9,0.2c-0.2,0.1-0.4,0.2-0.7,0.3c-0.2,0.1-0.5,0.2-0.7,0.4V8.3V7.8h-26
					l-0.7,2.1l-0.7-2.1h-6v2.5l-1.1-2.5h-4.9l-2.2,5.2v5.8v1.1h3.5l0.6-1.7h1.2l0.7,1.7h26.9v-1.8l1.3,1.8h7.4v-0.4V19
					c0.2,0.1,0.4,0.2,0.6,0.3c0.2,0.1,0.4,0.2,0.6,0.2c0.3,0.1,0.5,0.1,0.8,0.2c0.4,0.1,0.9,0.1,1.3,0.1h4.4l0.6-1.7h1.2l0.7,1.7
					h7.4v-1.8L299.8,19.9z M308.3,35.3V24h-0.6h-42.2l-1.1,1.5l-1.1-1.5H251v12h12.3l1.1-1.6l1.1,1.6h7.7v-2.6h-0.1
					c1,0,1.8-0.2,2.6-0.5V36h5.3v-1.8l1.3,1.8h23.2c0.7,0,1.3-0.1,1.9-0.3C307.7,35.6,308,35.5,308.3,35.3z"/>
				<g id="XMLID_77_" transform="translate(10.3 14.223)">
					<defs>
						<filter id="Adobe_OpacityMaskFilter_1_" filterUnits="userSpaceOnUse" x="242.6" y="11.7" width="55.4" height="8.1">
							<feColorMatrix  type="matrix" values="1 0 0 0 0  0 1 0 0 0  0 0 1 0 0  0 0 0 1 0"/>
						</filter>
					</defs>
					<mask maskUnits="userSpaceOnUse" x="242.6" y="11.7" width="55.4" height="8.1" id="bluebox-55x54-d_2_">
						<g id="XMLID_58_" style="filter:url(#Adobe_OpacityMaskFilter_1_);">
							<polygon id="bluebox-55x54-c_2_" style="fill:#FFFFFF;" points="298,19.9 298,11.7 242.6,11.7 242.6,19.9 							"/>
						</g>
					</mask>
					<path id="XMLID_78_" style="mask:url(#bluebox-55x54-d_2_);fill:#2E70B5;" d="M295.3,18.2h-4.2v1.6h4.1c1.8,0,2.8-1.1,2.8-2.6
						c0-1.5-0.9-2.3-2.5-2.3h-1.9c-0.5,0-0.8-0.3-0.8-0.8c0-0.5,0.3-0.8,0.8-0.8h3.5l0.7-1.6h-4.2c-1.8,0-2.8,1.1-2.8,2.5
						c0,1.5,1,2.4,2.5,2.4h1.9c0.5,0,0.8,0.3,0.8,0.8C296.1,17.9,295.8,18.2,295.3,18.2z M287.6,18.2h-4.2v1.6h4.1
						c1.8,0,2.8-1.1,2.8-2.6c0-1.5-0.9-2.3-2.5-2.3h-1.9c-0.5,0-0.8-0.3-0.8-0.8c0-0.5,0.3-0.8,0.8-0.8h3.5l0.7-1.6H286
						c-1.8,0-2.8,1.1-2.8,2.5c0,1.5,1,2.4,2.5,2.4h1.9c0.5,0,0.8,0.3,0.8,0.8C288.4,17.9,288,18.2,287.6,18.2z M282.2,13.4v-1.6
						h-6.5v8.1h6.5v-1.6h-4.5v-1.6h4.4V15h-4.4v-1.6H282.2z M271.3,13.4c0.7,0,1.1,0.5,1.1,1c0,0.6-0.4,1-1.1,1H269v-2H271.3z
						 M269,16.9h0.9l2.4,2.9h2.4l-2.7-3c1.4-0.3,2.2-1.3,2.2-2.6c0-1.5-1.1-2.6-2.8-2.6h-4.4v8.1h1.9V16.9z M264.1,14.5
						c0,0.5-0.3,1-1,1h-2.3v-2h2.3C263.7,13.5,264.1,13.9,264.1,14.5z M258.8,11.7v8.1h1.9v-2.7h2.4c1.8,0,2.9-1.2,2.9-2.7
						c0-1.6-1.1-2.7-2.8-2.7H258.8z M255.9,19.9h2.4l-3.3-4.1l3.2-4h-2.4l-2,2.6l-2-2.6h-2.4l3.2,4.1l-3.2,4.1h2.4l2-2.6L255.9,19.9
						z M249.1,13.4v-1.6h-6.5v8.1h6.5v-1.6h-4.5v-1.6h4.4V15h-4.4v-1.6H249.1z"/>
				</g>
				<path id="XMLID_65_" style="fill:#2E70B5;" d="M297.1,13l0-0.7l0.4,0.7l3.1,4.9h2.3V9.8H301v4.7l0,0.6l-0.4-0.6l-3-4.7h-2.4v8.1
					h1.9V13z M289.4,12.8l0.6-1.5l0.6,1.5l0.7,1.8h-2.6L289.4,12.8z M292.6,17.9h2.2l-3.5-8.1h-2.6l-3.5,8.1h2.1l0.7-1.7h3.9
					L292.6,17.9z M284.1,17.9h0.1l0.8-1.7h-0.6c-1.3,0-2.1-0.8-2.1-2.3v-0.1c0-1.3,0.7-2.3,2.1-2.3h2.1V9.8h-2.3
					c-2.5,0-3.9,1.7-3.9,4v0.1C280.3,16.3,281.7,17.9,284.1,17.9z M277.2,17.9h1.9v-3.6V9.8h-1.9v4.5V17.9z M273.1,11.4
					c0.7,0,1.1,0.5,1.1,1c0,0.6-0.4,1-1.1,1h-2.3v-2H273.1z M270.8,15h0.9l2.4,2.9h2.4l-2.7-3c1.4-0.3,2.2-1.3,2.2-2.6
					c0-1.5-1.1-2.6-2.8-2.6h-4.4v8.1h1.9V15z M267.4,11.4V9.8h-6.5v8.1h6.5v-1.7h-4.5v-1.6h4.4V13h-4.4v-1.6H267.4z M251.2,12.3
					l0-2.2l2.3,7.7h1.8l2.3-7.7l0,2.1v5.6h1.9V9.8h-3.4l-1.5,5.8l-1.6-5.8h-3.4v8.1h1.9V12.3z M243.5,12.8l0.6-1.5l0.6,1.5l0.7,1.8
					h-2.6L243.5,12.8z M246.7,17.9h2.2l-3.5-8.1h-2.6l-3.5,8.1h2.1l0.7-1.7h3.9L246.7,17.9z"/>
			</g>
		</g>
	</g>
	<g>
		<path id="XMLID_52_" style="fill:#E5E5E4;" d="M375.7,61.6h-56.2c-3.5,0-6.4-2.9-6.4-6.4V19.4c0-3.5,2.9-6.4,6.4-6.4h56.2
			c3.5,0,6.4,2.9,6.4,6.4v35.8C382.1,58.7,379.2,61.6,375.7,61.6z"/>
		<g>
			<defs>
				<path id="XMLID_51_" d="M375.7,61.6h-56.2c-3.5,0-6.4-2.9-6.4-6.4V19.4c0-3.5,2.9-6.4,6.4-6.4h56.2c3.5,0,6.4,2.9,6.4,6.4v35.8
					C382.1,58.7,379.2,61.6,375.7,61.6z"/>
			</defs>
			<clipPath id="XMLID_21_">
				<use xlink:href="#XMLID_51_"  style="overflow:visible;"/>
			</clipPath>
			<path style="clip-path:url(#XMLID_21_);fill:#F48120;" d="M382.9,43.5c-3.8,2.4-20.9,12.8-49.5,18.4h45c2.5,0,4.5-2,4.5-4.5V43.5
				z"/>
		</g>
		<g id="discover_8_">
			<g>
				<path style="fill:#F48120;" d="M350.2,28.3c-2.8,0-5.1,2.2-5.1,5c0,2.9,2.2,5.1,5.1,5.1c2.9,0,5.1-2.2,5.1-5
					C355.3,30.5,353,28.3,350.2,28.3z"/>
				<path style="fill:#59595C;" d="M320.9,28.5h-2.8v9.6h2.8c1.5,0,2.5-0.3,3.4-1.1c1.1-0.9,1.8-2.3,1.8-3.7
					C326.1,30.5,324,28.5,320.9,28.5z M323.1,35.7c-0.6,0.5-1.4,0.8-2.6,0.8h-0.5v-6.4h0.5c1.2,0,2,0.2,2.6,0.8c0.7,0.6,1,1.5,1,2.4
					C324.2,34.2,323.8,35.2,323.1,35.7z"/>
				<rect x="327" y="28.5" style="fill:#59595C;" width="1.9" height="9.6"/>
				<path style="fill:#59595C;" d="M333.5,32.2c-1.1-0.4-1.5-0.7-1.5-1.2c0-0.6,0.6-1.1,1.4-1.1c0.6,0,1,0.2,1.5,0.8l1-1.3
					c-0.8-0.7-1.8-1.1-2.8-1.1c-1.7,0-3,1.2-3,2.8c0,1.3,0.6,2,2.4,2.7c0.7,0.3,1.1,0.4,1.3,0.5c0.4,0.2,0.6,0.6,0.6,1
					c0,0.8-0.6,1.4-1.5,1.4c-0.9,0-1.6-0.4-2.1-1.3l-1.2,1.2c0.9,1.3,1.9,1.8,3.3,1.8c2,0,3.3-1.3,3.3-3.2
					C336.2,33.7,335.6,33,333.5,32.2z"/>
				<path style="fill:#59595C;" d="M336.8,33.3c0,2.8,2.2,5,5.1,5c0.8,0,1.5-0.2,2.4-0.6v-2.2c-0.8,0.8-1.4,1.1-2.3,1.1
					c-1.9,0-3.2-1.4-3.2-3.3c0-1.9,1.4-3.3,3.2-3.3c0.9,0,1.6,0.3,2.4,1.1v-2.2c-0.8-0.4-1.5-0.6-2.3-0.6
					C339.1,28.3,336.8,30.5,336.8,33.3z"/>
				<polygon style="fill:#59595C;" points="359.5,35 357,28.5 354.9,28.5 359,38.4 360,38.4 364.2,28.5 362.2,28.5 				"/>
				<polygon style="fill:#59595C;" points="365,38.1 370.4,38.1 370.4,36.5 366.9,36.5 366.9,33.9 370.3,33.9 370.3,32.3
					366.9,32.3 366.9,30.1 370.4,30.1 370.4,28.5 365,28.5 				"/>
				<path style="fill:#59595C;" d="M377.8,31.3c0-1.8-1.2-2.8-3.4-2.8h-2.8v9.6h1.9v-3.9h0.2l2.6,3.9h2.3l-3-4.1
					C377.1,33.8,377.8,32.8,377.8,31.3z M374.1,32.9h-0.5V30h0.6c1.2,0,1.8,0.5,1.8,1.4C375.9,32.4,375.3,32.9,374.1,32.9z"/>
			</g>
		</g>
	</g>
</g>
</svg>
