<svg version="1.0" id="Layer_1" xmlns="http://www.w3.org/2000/svg" xmlns:xlink="http://www.w3.org/1999/xlink" x="0px" y="0px"
	 viewBox="0 0 1000 175" style="enable-background:new 0 0 1000 175;" xml:space="preserve">
<g>
	<path style="fill:#009ADE;" d="M107.7,51.3c1.6-10.2,0-17.1-5.5-23.4c-6.1-6.9-17-9.9-31.1-9.9H30.3c-2.9,0-5.3,2.1-5.8,4.9
		l-17,107.5c-0.3,2.1,1.3,4,3.5,4h25.1l-1.7,11c-0.3,1.9,1.1,3.5,3,3.5h21.2c2.5,0,4.6-1.8,5-4.3l0.2-1.1l4-25.3l0.3-1.4
		c0.4-2.5,2.5-4.3,5-4.3h3.2c20.5,0,36.6-8.3,41.3-32.5c2-10.1,0.9-18.5-4.2-24.4C111.9,54,109.9,52.5,107.7,51.3L107.7,51.3"/>
	<path style="fill:#002169;" d="M107.7,51.3c1.6-10.2,0-17.1-5.5-23.4c-6.1-6.9-17-9.9-31.1-9.9H30.3c-2.9,0-5.3,2.1-5.8,4.9
		l-17,107.5c-0.3,2.1,1.3,4,3.5,4h25.1l6.3-40.1l-0.2,1.3c0.4-2.8,2.9-4.9,5.7-4.9h12c23.5,0,41.8-9.5,47.2-37.1
		C107.4,52.8,107.5,52,107.7,51.3"/>
	<path style="fill:#002F87;" d="M49.3,51.4c0.3-1.7,1.4-3.1,2.8-3.8c0.7-0.3,1.4-0.5,2.2-0.5h31.9c3.8,0,7.3,0.2,10.5,0.8
		c0.9,0.1,1.8,0.3,2.7,0.5c0.9,0.2,1.7,0.4,2.5,0.6c0.4,0.1,0.8,0.2,1.2,0.4c1.6,0.5,3.1,1.1,4.4,1.9c1.6-10.2,0-17.1-5.5-23.4
		c-6.1-6.9-17-9.9-31.1-9.9H30.3c-2.9,0-5.3,2.1-5.8,4.9l-17,107.5c-0.3,2.1,1.3,4,3.5,4h25.1l6.3-40.1L49.3,51.4z"/>
</g>
<g id="XMLID_1_">
	<path id="XMLID_57_" style="fill:#253C7F;" d="M193.1,65.7c-2,13.2-12.1,13.2-21.8,13.2h-5.5l3.9-24.6c0.2-1.5,1.5-2.6,3-2.6h2.5
		c6.6,0,12.9,0,16.1,3.8C193.2,57.8,193.8,61.1,193.1,65.7z M188.9,31.4h-36.7c-2.5,0-4.6,1.8-5,4.3l-14.8,94.1
		c-0.3,1.9,1.1,3.5,3,3.5h17.5c2.5,0,4.6-1.8,5-4.3l4-25.4c0.4-2.5,2.5-4.3,5-4.3h11.6c24.2,0,38.1-11.7,41.8-34.9
		c1.6-10.1,0.1-18.1-4.7-23.7C210.4,34.6,201.1,31.4,188.9,31.4z"/>
	<path id="XMLID_54_" style="fill:#253C7F;" d="M274,99.5c-1.7,10-9.7,16.8-19.8,16.8c-5.1,0-9.2-1.6-11.8-4.7
		c-2.6-3.1-3.6-7.5-2.8-12.3c1.6-10,9.7-16.9,19.7-16.9c5,0,9,1.7,11.7,4.8C273.7,90.2,274.8,94.7,274,99.5z M298.5,65.3H281
		c-1.5,0-2.8,1.1-3,2.6l-0.8,4.9l-1.2-1.8c-3.8-5.5-12.3-7.4-20.8-7.4c-19.4,0-36,14.7-39.2,35.3c-1.7,10.3,0.7,20.1,6.5,27
		c5.4,6.3,13,8.9,22.1,8.9c15.6,0,24.3-10.1,24.3-10.1l-0.8,4.9c-0.3,1.9,1.1,3.5,3,3.5H287c2.5,0,4.6-1.8,5-4.3l9.5-60.1
		C301.8,67,300.4,65.3,298.5,65.3z"/>
	<path id="XMLID_33_" style="fill:#253C7F;" d="M392.1,65.3h-17.7c-1.7,0-3.3,0.8-4.2,2.2l-24.4,35.9L335.6,69
		c-0.6-2.2-2.6-3.6-4.9-3.6h-17.4c-2.1,0-3.6,2.1-2.9,4l19.4,57.1l-18.3,25.8c-1.4,2,0,4.8,2.5,4.8h17.6c1.7,0,3.2-0.8,4.2-2.2
		l58.7-84.8C396,68.1,394.6,65.3,392.1,65.3z"/>
	<path id="XMLID_38_" style="fill:#159AD6;" d="M454.8,65.7c-2,13.2-12.1,13.2-21.8,13.2h-5.5l3.9-24.6c0.2-1.5,1.5-2.6,3-2.6h2.5
		c6.6,0,12.9,0,16.1,3.8C455,57.8,455.5,61.1,454.8,65.7z M450.6,31.4h-36.7c-2.5,0-4.6,1.8-5,4.3L394,129.8c-0.3,1.9,1.1,3.5,3,3.5
		h18.8c1.7,0,3.2-1.3,3.5-3l4.2-26.7c0.4-2.5,2.5-4.3,5-4.3h11.6c24.2,0,38.1-11.7,41.8-34.9c1.6-10.1,0.1-18.1-4.7-23.7
		C472.1,34.6,462.9,31.4,450.6,31.4z"/>
	<path id="XMLID_21_" style="fill:#159AD6;" d="M535.8,99.5c-1.7,10-9.7,16.8-19.8,16.8c-5.1,0-9.2-1.6-11.8-4.7
		c-2.6-3.1-3.6-7.5-2.8-12.3c1.6-10,9.7-16.9,19.7-16.9c5,0,9,1.7,11.7,4.8C535.5,90.2,536.5,94.7,535.8,99.5z M560.3,65.3h-17.6
		c-1.5,0-2.8,1.1-3,2.6l-0.8,4.9l-1.2-1.8c-3.8-5.5-12.3-7.4-20.7-7.4c-19.4,0-36,14.7-39.2,35.3c-1.7,10.3,0.7,20.1,6.5,27
		c5.4,6.3,13,8.9,22.1,8.9c15.6,0,24.3-10.1,24.3-10.1l-0.8,4.9c-0.3,1.9,1.1,3.5,3,3.5h15.8c2.5,0,4.6-1.8,5-4.3l9.5-60.1
		C563.6,67,562.1,65.3,560.3,65.3z"/>
	<path id="XMLID_28_" style="fill:#159AD6;" d="M581,34l-15.1,95.8c-0.3,1.9,1.1,3.5,3,3.5h15.1c2.5,0,4.7-1.8,5-4.3L604,34.9
		c0.3-1.9-1.1-3.5-3-3.5h-17C582.5,31.4,581.2,32.5,581,34z"/>
</g>
<g>
	<path style="fill:#231F20;" d="M664.4,62.4c-5.8,0-10.3,2.1-13.7,6.2c-3.3,4.1-5,9.8-5,17c0,7.6,1.6,13.3,4.8,17.2
		s7.8,5.8,13.9,5.8c2.6,0,5.1-0.3,7.6-0.8c2.4-0.5,5-1.2,7.6-2v8.6c-4.8,1.8-10.3,2.7-16.4,2.7c-9,0-16-2.7-20.8-8.2
		c-4.8-5.5-7.3-13.3-7.3-23.5c0-6.4,1.2-12,3.5-16.8c2.3-4.8,5.7-8.5,10.2-11c4.4-2.6,9.7-3.8,15.6-3.8c6.3,0,12.1,1.3,17.5,4
		l-3.6,8.4c-2.1-1-4.3-1.8-6.6-2.6C669.4,62.8,666.9,62.4,664.4,62.4z"/>
	<path style="fill:#231F20;" d="M729,116.3h-10V87.6c0-3.6-0.7-6.3-2.2-8.1c-1.4-1.8-3.7-2.7-6.9-2.7c-4.2,0-7.2,1.2-9.2,3.7
		c-2,2.5-2.9,6.7-2.9,12.5v23.2h-9.9V50.7h9.9v16.7c0,2.7-0.2,5.5-0.5,8.6h0.6c1.3-2.2,3.2-4,5.6-5.2c2.4-1.2,5.2-1.9,8.4-1.9
		c11.3,0,17,5.7,17,17.1V116.3z"/>
	<path style="fill:#231F20;" d="M759.2,117.1c-7.3,0-12.9-2.1-17-6.3c-4.1-4.2-6.1-10.1-6.1-17.5c0-7.6,1.9-13.6,5.7-18
		c3.8-4.4,9-6.5,15.6-6.5c6.2,0,11,1.9,14.6,5.6c3.6,3.7,5.4,8.9,5.4,15.4v5.4h-31.1c0.1,4.5,1.4,8,3.7,10.4s5.6,3.6,9.7,3.6
		c2.8,0,5.3-0.3,7.7-0.8s4.9-1.4,7.7-2.6v8.1c-2.4,1.2-4.9,2-7.3,2.4C765.2,116.9,762.4,117.1,759.2,117.1z M757.4,76.3
		c-3.1,0-5.7,1-7.6,3c-1.9,2-3,4.9-3.4,8.7h21.2c-0.1-3.9-1-6.8-2.8-8.8C763.1,77.3,760.6,76.3,757.4,76.3z"/>
	<path style="fill:#231F20;" d="M803.6,117.1c-7.1,0-12.4-2.1-16.1-6.2c-3.7-4.1-5.5-10-5.5-17.7c0-7.8,1.9-13.9,5.8-18.1
		c3.8-4.2,9.4-6.3,16.6-6.3c4.9,0,9.3,0.9,13.3,2.7l-3,8c-4.2-1.6-7.6-2.4-10.4-2.4c-8.1,0-12.1,5.4-12.1,16.1c0,5.2,1,9.2,3,11.8
		c2,2.6,5,3.9,8.8,3.9c4.4,0,8.6-1.1,12.5-3.3v8.6c-1.8,1-3.7,1.8-5.7,2.2C808.9,116.9,806.4,117.1,803.6,117.1z"/>
	<path style="fill:#231F20;" d="M833.2,91.7l5.6-7l14.1-15h11.4l-18.8,20l19.9,26.6h-11.6l-15-20.5l-5.4,4.5v16h-9.8V50.7h9.8v32
		l-0.5,9H833.2z"/>
	<path style="fill:#231F20;" d="M910.5,92.9c0,7.6-2,13.6-5.9,17.8c-3.9,4.3-9.3,6.4-16.3,6.4c-4.4,0-8.2-1-11.6-3s-5.9-4.8-7.7-8.5
		c-1.8-3.7-2.7-8-2.7-12.8c0-7.6,1.9-13.5,5.8-17.7c3.9-4.2,9.3-6.4,16.4-6.4c6.7,0,12.1,2.2,16,6.5
		C908.5,79.7,910.5,85.5,910.5,92.9z M876.5,92.9c0,10.8,4,16.2,11.9,16.2c7.9,0,11.8-5.4,11.8-16.2c0-10.7-4-16-11.9-16
		c-4.2,0-7.2,1.4-9,4.1C877.5,83.8,876.5,87.7,876.5,92.9z"/>
	<path style="fill:#231F20;" d="M950.9,116.3l-1.4-6.1H949c-1.4,2.2-3.3,3.9-5.9,5.1c-2.5,1.2-5.4,1.9-8.7,1.9
		c-5.7,0-9.9-1.4-12.7-4.2c-2.8-2.8-4.2-7.1-4.2-12.8V69.6h10v28.8c0,3.6,0.7,6.2,2.2,8c1.5,1.8,3.8,2.7,6.9,2.7
		c4.2,0,7.2-1.2,9.2-3.7s2.9-6.7,2.9-12.5V69.6h10v46.6H950.9z"/>
	<path style="fill:#231F20;" d="M986.3,109.1c2.4,0,4.8-0.4,7.3-1.1v7.5c-1.1,0.5-2.5,0.9-4.2,1.2c-1.7,0.3-3.5,0.5-5.4,0.5
		c-9.4,0-14.1-4.9-14.1-14.8V77.2h-6.4v-4.4l6.8-3.6l3.4-9.9h6.1v10.4h13.3v7.5h-13.3v25c0,2.4,0.6,4.2,1.8,5.3
		C982.8,108.6,984.4,109.1,986.3,109.1z"/>
</g>
</svg>
