<svg version="1.0" id="Layer_1" xmlns="http://www.w3.org/2000/svg" xmlns:xlink="http://www.w3.org/1999/xlink" x="0px" y="0px"
	 viewBox="0 0 326.7 75" style="enable-background:new 0 0 326.7 75;" xml:space="preserve">
<g>
	<g>
		<path id="XMLID_47_" style="fill:#0968B0;" d="M81.1,61.6H24.9c-3.5,0-6.4-2.9-6.4-6.4V19.4c0-3.5,2.9-6.4,6.4-6.4h56.2
			c3.5,0,6.4,2.9,6.4,6.4v35.8C87.5,58.7,84.7,61.6,81.1,61.6z"/>
		<g id="XMLID_7_">
			<g id="XMLID_9_">
				<polygon id="XMLID_19_" style="fill:#FFFFFF;" points="50.1,44.9 46.5,44.9 48.7,31.1 52.3,31.1 				"/>
				<path id="XMLID_18_" style="fill:#FFFFFF;" d="M43.5,31.1l-3.4,9.5l-0.4-2l0,0l-1.2-6.2c0,0-0.1-1.2-1.7-1.2h-5.7L31,31.3
					c0,0,1.7,0.4,3.8,1.6l3.1,12h3.7l5.7-13.8H43.5z"/>
				<path id="XMLID_11_" style="fill:#FFFFFF;" d="M71.7,44.9H75l-2.9-13.8h-2.9c-1.3,0-1.7,1-1.7,1l-5.4,12.8H66l0.7-2.1h4.6
					L71.7,44.9z M67.8,40l1.9-5.2l1.1,5.2H67.8z"/>
				<path id="XMLID_10_" style="fill:#FFFFFF;" d="M62.5,34.4l0.5-3c0,0-1.6-0.6-3.2-0.6c-1.8,0-6,0.8-6,4.6c0,3.6,5,3.6,5,5.5
					c0,1.9-4.5,1.5-5.9,0.4l-0.5,3.1c0,0,1.6,0.8,4.1,0.8c2.5,0,6.2-1.3,6.2-4.7c0-3.6-5-3.9-5-5.5C57.5,33.3,61,33.5,62.5,34.4z"/>
			</g>
			<path id="XMLID_8_" style="fill:#F9A533;" d="M39.6,38.5l-1.2-6.2c0,0-0.1-1.2-1.7-1.2h-5.7L31,31.3c0,0,2.7,0.6,5.3,2.7
				C38.8,36,39.6,38.5,39.6,38.5z"/>
		</g>
	</g>
	<g>
		<path id="XMLID_46_" style="fill:#384A5D;" d="M154.9,61.6H98.7c-3.5,0-6.4-2.9-6.4-6.4V19.4c0-3.5,2.9-6.4,6.4-6.4h56.2
			c3.5,0,6.4,2.9,6.4,6.4v35.8C161.3,58.7,158.4,61.6,154.9,61.6z"/>
		<g id="XMLID_3_">
			<rect id="XMLID_41_" x="121" y="26.8" style="fill:#ED6724;" width="11.6" height="20.8"/>
			<path id="XMLID_40_" style="fill:#DF1F28;" d="M121.7,37.3c0-4.2,2-8,5.1-10.4c-2.3-1.8-5.1-2.8-8.2-2.8
				c-7.3,0-13.2,5.9-13.2,13.2c0,7.3,5.9,13.2,13.2,13.2c3.1,0,5.9-1.1,8.2-2.8C123.7,45.2,121.7,41.5,121.7,37.3"/>
			<path id="XMLID_20_" style="fill:#F59C20;" d="M148.2,37.3c0,7.3-5.9,13.2-13.2,13.2c-3.1,0-5.9-1.1-8.2-2.8
				c3.1-2.4,5.1-6.2,5.1-10.4s-2-8-5.1-10.4c2.3-1.8,5.1-2.8,8.2-2.8C142.3,24,148.2,29.9,148.2,37.3 M146.9,45.5V45h0.2V45h-0.4V45
				h0.2L146.9,45.5L146.9,45.5z M147.8,45.5V45h-0.1l-0.2,0.4l-0.2-0.4h-0.1v0.5h0.1v-0.4l0.1,0.3h0.1l0.1-0.3L147.8,45.5
				L147.8,45.5z"/>
		</g>
	</g>
	<g>
		<path id="XMLID_45_" style="fill:#2E70B5;" d="M228.6,61.6h-56.2c-3.5,0-6.4-2.9-6.4-6.4V19.4c0-3.5,2.9-6.4,6.4-6.4h56.2
			c3.5,0,6.4,2.9,6.4,6.4v35.8C235,58.7,232.2,61.6,228.6,61.6z"/>
		<g id="XMLID_63_">
			<g id="XMLID_64_" transform="translate(0 16.675)">
				<defs>
					<filter id="Adobe_OpacityMaskFilter" filterUnits="userSpaceOnUse" x="166" y="7.8" width="68.9" height="28.2">
						<feColorMatrix  type="matrix" values="1 0 0 0 0  0 1 0 0 0  0 0 1 0 0  0 0 0 1 0"/>
					</filter>
				</defs>
				<mask maskUnits="userSpaceOnUse" x="166" y="7.8" width="68.9" height="28.2" id="bluebox-55x54-b_2_">
					<g id="XMLID_100_" style="filter:url(#Adobe_OpacityMaskFilter);">
						<polygon id="bluebox-55x54-a_2_" style="fill:#FFFFFF;" points="166,7.8 166,36 235,36 235,7.8 						"/>
					</g>
				</mask>
				<path id="XMLID_90_" style="mask:url(#bluebox-55x54-b_2_);fill:#F5F6F6;" d="M226.5,19.9h5.2v-12h-5.5v1.9L225,7.8h-4.8v2.4
					l-1.1-2.4h-8c-0.4,0-0.8,0-1.1,0.1c-0.3,0-0.6,0.1-0.9,0.2c-0.2,0.1-0.4,0.2-0.7,0.3c-0.2,0.1-0.5,0.2-0.7,0.4V8.3V7.8h-26
					L181,9.9l-0.7-2.1h-6v2.5l-1.1-2.5h-4.9L166,13v5.8v1.1h3.5l0.6-1.7h1.2l0.7,1.7h26.9v-1.8l1.3,1.8h7.4v-0.4V19
					c0.2,0.1,0.4,0.2,0.6,0.3c0.2,0.1,0.4,0.2,0.6,0.2c0.3,0.1,0.5,0.1,0.8,0.2c0.4,0.1,0.9,0.1,1.3,0.1h4.4l0.6-1.7h1.2l0.7,1.7
					h7.4v-1.8L226.5,19.9z M235,35.3V24h-0.6h-42.2l-1.1,1.5L190,24h-12.3v12H190l1.1-1.6l1.1,1.6h7.7v-2.6h-0.1
					c1,0,1.8-0.2,2.6-0.5V36h5.3v-1.8L209,36h23.2c0.7,0,1.3-0.1,1.9-0.3C234.4,35.6,234.7,35.5,235,35.3z"/>
				<g id="XMLID_77_" transform="translate(10.3 14.223)">
					<defs>
						<filter id="Adobe_OpacityMaskFilter_1_" filterUnits="userSpaceOnUse" x="169.3" y="11.7" width="55.4" height="8.1">
							<feColorMatrix  type="matrix" values="1 0 0 0 0  0 1 0 0 0  0 0 1 0 0  0 0 0 1 0"/>
						</filter>
					</defs>
					<mask maskUnits="userSpaceOnUse" x="169.3" y="11.7" width="55.4" height="8.1" id="bluebox-55x54-d_2_">
						<g id="XMLID_58_" style="filter:url(#Adobe_OpacityMaskFilter_1_);">
							<polygon id="bluebox-55x54-c_2_" style="fill:#FFFFFF;" points="224.7,19.9 224.7,11.7 169.3,11.7 169.3,19.9 							"/>
						</g>
					</mask>
					<path id="XMLID_78_" style="mask:url(#bluebox-55x54-d_2_);fill:#2E70B5;" d="M222,18.2h-4.2v1.6h4.1c1.8,0,2.8-1.1,2.8-2.6
						c0-1.5-0.9-2.3-2.5-2.3h-1.9c-0.5,0-0.8-0.3-0.8-0.8c0-0.5,0.3-0.8,0.8-0.8h3.5l0.7-1.6h-4.2c-1.8,0-2.8,1.1-2.8,2.5
						c0,1.5,1,2.4,2.5,2.4h1.9c0.5,0,0.8,0.3,0.8,0.8C222.8,17.9,222.4,18.2,222,18.2z M214.3,18.2h-4.2v1.6h4.1
						c1.8,0,2.8-1.1,2.8-2.6c0-1.5-0.9-2.3-2.5-2.3h-1.9c-0.5,0-0.8-0.3-0.8-0.8c0-0.5,0.3-0.8,0.8-0.8h3.5l0.7-1.6h-4.2
						c-1.8,0-2.8,1.1-2.8,2.5c0,1.5,1,2.4,2.5,2.4h1.9c0.5,0,0.8,0.3,0.8,0.8C215.1,17.9,214.7,18.2,214.3,18.2z M208.9,13.4v-1.6
						h-6.5v8.1h6.5v-1.6h-4.5v-1.6h4.4V15h-4.4v-1.6H208.9z M198,13.4c0.7,0,1.1,0.5,1.1,1c0,0.6-0.4,1-1.1,1h-2.3v-2H198z
						 M195.7,16.9h0.9l2.4,2.9h2.4l-2.7-3c1.4-0.3,2.2-1.3,2.2-2.6c0-1.5-1.1-2.6-2.8-2.6h-4.4v8.1h1.9V16.9z M190.8,14.5
						c0,0.5-0.3,1-1,1h-2.3v-2h2.3C190.4,13.5,190.8,13.9,190.8,14.5z M185.5,11.7v8.1h1.9v-2.7h2.4c1.8,0,2.9-1.2,2.9-2.7
						c0-1.6-1.1-2.7-2.8-2.7H185.5z M182.6,19.9h2.4l-3.3-4.1l3.2-4h-2.4l-2,2.6l-2-2.6h-2.4l3.2,4.1l-3.2,4.1h2.4l2-2.6L182.6,19.9
						z M175.8,13.4v-1.6h-6.5v8.1h6.5v-1.6h-4.5v-1.6h4.4V15h-4.4v-1.6H175.8z"/>
				</g>
				<path id="XMLID_65_" style="fill:#2E70B5;" d="M223.8,13l0-0.7l0.4,0.7l3.1,4.9h2.3V9.8h-1.9v4.7l0,0.6l-0.4-0.6l-3-4.7h-2.4
					v8.1h1.9V13z M216.1,12.8l0.6-1.5l0.6,1.5l0.7,1.8h-2.6L216.1,12.8z M219.3,17.9h2.2L218,9.8h-2.6l-3.5,8.1h2.1l0.7-1.7h3.9
					L219.3,17.9z M210.8,17.9h0.1l0.8-1.7h-0.6c-1.3,0-2.1-0.8-2.1-2.3v-0.1c0-1.3,0.7-2.3,2.1-2.3h2.1V9.8h-2.3
					c-2.5,0-3.9,1.7-3.9,4v0.1C207,16.3,208.4,17.9,210.8,17.9z M203.8,17.9h1.9v-3.6V9.8h-1.9v4.5V17.9z M199.7,11.4
					c0.7,0,1.1,0.5,1.1,1c0,0.6-0.4,1-1.1,1h-2.3v-2H199.7z M197.5,15h0.9l2.4,2.9h2.4l-2.7-3c1.4-0.3,2.2-1.3,2.2-2.6
					c0-1.5-1.1-2.6-2.8-2.6h-4.4v8.1h1.9V15z M194.1,11.4V9.8h-6.5v8.1h6.5v-1.7h-4.5v-1.6h4.4V13h-4.4v-1.6H194.1z M177.9,12.3
					l0-2.2l2.3,7.7h1.8l2.3-7.7l0,2.1v5.6h1.9V9.8h-3.4l-1.5,5.8l-1.6-5.8H176v8.1h1.9V12.3z M170.2,12.8l0.6-1.5l0.6,1.5l0.7,1.8
					h-2.6L170.2,12.8z M173.4,17.9h2.2l-3.5-8.1h-2.6l-3.5,8.1h2.1l0.7-1.7h3.9L173.4,17.9z"/>
			</g>
		</g>
	</g>
	<g>
		<path id="XMLID_52_" style="fill:#E5E5E4;" d="M302.4,61.6h-56.2c-3.5,0-6.4-2.9-6.4-6.4V19.4c0-3.5,2.9-6.4,6.4-6.4h56.2
			c3.5,0,6.4,2.9,6.4,6.4v35.8C308.8,58.7,305.9,61.6,302.4,61.6z"/>
		<g>
			<defs>
				<path id="XMLID_51_" d="M302.4,61.6h-56.2c-3.5,0-6.4-2.9-6.4-6.4V19.4c0-3.5,2.9-6.4,6.4-6.4h56.2c3.5,0,6.4,2.9,6.4,6.4v35.8
					C308.8,58.7,305.9,61.6,302.4,61.6z"/>
			</defs>
			<clipPath id="XMLID_2_">
				<use xlink:href="#XMLID_51_"  style="overflow:visible;"/>
			</clipPath>
			<path style="clip-path:url(#XMLID_2_);fill:#F48120;" d="M309.6,43.5c-3.8,2.4-20.9,12.8-49.5,18.4h45c2.5,0,4.5-2,4.5-4.5V43.5z
				"/>
		</g>
		<g id="discover_8_">
			<g>
				<path style="fill:#F48120;" d="M276.8,28.3c-2.8,0-5.1,2.2-5.1,5c0,2.9,2.2,5.1,5.1,5.1c2.9,0,5.1-2.2,5.1-5
					C282,30.5,279.7,28.3,276.8,28.3z"/>
				<path style="fill:#59595C;" d="M247.6,28.5h-2.8v9.6h2.8c1.5,0,2.5-0.3,3.4-1.1c1.1-0.9,1.8-2.3,1.8-3.7
					C252.8,30.5,250.7,28.5,247.6,28.5z M249.8,35.7c-0.6,0.5-1.4,0.8-2.6,0.8h-0.5v-6.4h0.5c1.2,0,2,0.2,2.6,0.8
					c0.7,0.6,1,1.5,1,2.4C250.9,34.2,250.5,35.2,249.8,35.7z"/>
				<rect x="253.7" y="28.5" style="fill:#59595C;" width="1.9" height="9.6"/>
				<path style="fill:#59595C;" d="M260.2,32.2c-1.1-0.4-1.5-0.7-1.5-1.2c0-0.6,0.6-1.1,1.4-1.1c0.6,0,1,0.2,1.5,0.8l1-1.3
					c-0.8-0.7-1.8-1.1-2.8-1.1c-1.7,0-3,1.2-3,2.8c0,1.3,0.6,2,2.4,2.7c0.7,0.3,1.1,0.4,1.3,0.5c0.4,0.2,0.6,0.6,0.6,1
					c0,0.8-0.6,1.4-1.5,1.4c-0.9,0-1.6-0.4-2.1-1.3l-1.2,1.2c0.9,1.3,1.9,1.8,3.3,1.8c2,0,3.3-1.3,3.3-3.2
					C262.9,33.7,262.3,33,260.2,32.2z"/>
				<path style="fill:#59595C;" d="M263.5,33.3c0,2.8,2.2,5,5.1,5c0.8,0,1.5-0.2,2.4-0.6v-2.2c-0.8,0.8-1.4,1.1-2.3,1.1
					c-1.9,0-3.2-1.4-3.2-3.3c0-1.9,1.4-3.3,3.2-3.3c0.9,0,1.6,0.3,2.4,1.1v-2.2c-0.8-0.4-1.5-0.6-2.3-0.6
					C265.8,28.3,263.5,30.5,263.5,33.3z"/>
				<polygon style="fill:#59595C;" points="286.2,35 283.7,28.5 281.6,28.5 285.7,38.4 286.7,38.4 290.9,28.5 288.8,28.5 				"/>
				<polygon style="fill:#59595C;" points="291.7,38.1 297.1,38.1 297.1,36.5 293.6,36.5 293.6,33.9 296.9,33.9 296.9,32.3
					293.6,32.3 293.6,30.1 297.1,30.1 297.1,28.5 291.7,28.5 				"/>
				<path style="fill:#59595C;" d="M304.5,31.3c0-1.8-1.2-2.8-3.4-2.8h-2.8v9.6h1.9v-3.9h0.2l2.6,3.9h2.3l-3-4.1
					C303.7,33.8,304.5,32.8,304.5,31.3z M300.8,32.9h-0.5V30h0.6c1.2,0,1.8,0.5,1.8,1.4C302.6,32.4,302,32.9,300.8,32.9z"/>
			</g>
		</g>
	</g>
</g>
</svg>
