<?xml version="1.0" encoding="utf-8"?>
<!-- Generator: Adobe Illustrator 22.1.0, SVG Export Plug-In . SVG Version: 6.00 Build 0)  -->
<!DOCTYPE svg PUBLIC "-//W3C//DTD SVG 1.0//EN" "http://www.w3.org/TR/2001/REC-SVG-20010904/DTD/svg10.dtd">
<svg version="1.0" id="Layer_1" xmlns="http://www.w3.org/2000/svg" xmlns:xlink="http://www.w3.org/1999/xlink" x="0px" y="0px"
	 viewBox="0 0 23.8 23.8" style="enable-background:new 0 0 23.8 23.8;" xml:space="preserve">
<title>Search</title>
<path d="M21.6,22.7c-0.2,0-0.4-0.1-0.6-0.2l-5.7-5.7c-1.5,1.3-3.5,2-5.5,2c-2.3,0-4.5-0.9-6.1-2.5c-1.6-1.6-2.5-3.8-2.5-6.1
	c0-2.3,0.9-4.5,2.5-6.1c1.6-1.6,3.8-2.5,6.1-2.5c2.3,0,4.5,0.9,6.1,2.5c3.1,3.1,3.4,8.2,0.5,11.6l5.7,5.7c0.3,0.3,0.3,0.8,0,1.1
	C22,22.6,21.8,22.7,21.6,22.7z M9.9,3.1c-1.9,0-3.6,0.7-5,2.1c-2.7,2.7-2.7,7.2,0,9.9c1.3,1.3,3.1,2.1,5,2.1s3.6-0.7,5-2.1
	c2.7-2.7,2.7-7.2,0-9.9C13.5,3.9,11.7,3.1,9.9,3.1z"/>
</svg>
