<?xml version="1.0" encoding="utf-8"?>
<!-- Generator: Adobe Illustrator 22.1.0, SVG Export Plug-In . SVG Version: 6.00 Build 0)  -->
<!DOCTYPE svg PUBLIC "-//W3C//DTD SVG 1.0//EN" "http://www.w3.org/TR/2001/REC-SVG-20010904/DTD/svg10.dtd">
<svg version="1.0" id="Layer_1" xmlns="http://www.w3.org/2000/svg" xmlns:xlink="http://www.w3.org/1999/xlink" x="0px" y="0px"
	 viewBox="0 0 24 24" style="enable-background:new 0 0 24 24;" xml:space="preserve">
<title>My Account</title>
<path d="M20,22.5c-0.5,0-0.8-0.3-0.8-0.8v-4c0-1.8-1.4-3.2-3.2-3.2H8c-1.8,0-3.2,1.4-3.2,3.2v4c0,0.5-0.3,0.8-0.8,0.8
	s-0.8-0.3-0.8-0.8v-4c0-2.7,2.1-4.8,4.8-4.8h8c2.7,0,4.8,2.1,4.8,4.8v4C20.8,22.2,20.5,22.5,20,22.5z"/>
<path d="M12,11.5c-2.7,0-4.8-2.1-4.8-4.8S9.3,1.9,12,1.9s4.8,2.1,4.8,4.8S14.7,11.5,12,11.5z M12,3.5c-1.8,0-3.2,1.4-3.2,3.2
	s1.4,3.2,3.2,3.2c1.8,0,3.2-1.4,3.2-3.2S13.8,3.5,12,3.5z"/>
</svg>
